<svg xmlns="http://www.w3.org/2000/svg" version="1.1" xmlns:xlink="http://www.w3.org/1999/xlink" xmlns:svgjs="http://svgjs.com/svgjs" width="1200" height="580" preserveAspectRatio="none" viewBox="0 0 1200 580"><g mask="url(&quot;#SvgjsMask1009&quot;)" fill="none"><rect width="1200" height="580" x="0" y="0" fill="rgba(4, 51, 109, 1)"></rect><path d="M0,479.509C104.272,505.012,230.787,556.808,315.319,490.646C401.592,423.122,342.609,276.895,386.897,176.69C430.317,78.448,558.674,25.272,568.282,-81.707C578.16,-191.696,523.906,-310.627,436.756,-378.451C352.125,-444.316,230.353,-405.281,125.234,-426.509C31.964,-445.344,-52.443,-515.174,-145.657,-496.064C-240.942,-476.529,-309.342,-396.736,-374.081,-324.143C-439.614,-250.66,-494.914,-169.821,-521.219,-74.94C-550.095,29.216,-591.637,152.982,-531.2,242.591C-469.82,333.598,-329.91,312.641,-229.658,357.354C-148.833,393.403,-85.966,458.483,0,479.509" fill="#032957"></path><path d="M1200 1130.579C1301.88 1124.9009999999998 1350.497 1002.028 1430.6 938.8199999999999 1500.9189999999999 883.332 1593.91 857.434 1641.96 781.837 1693.339 701.004 1729.159 600.052 1704.804 507.42 1680.935 416.637 1580.124 374.781 1516.732 305.55 1455.564 238.748 1416.026 154.78300000000002 1338.708 107.60399999999998 1245.438 50.69100000000003 1136.249-24.647000000000048 1032.688 10.187999999999988 928.663 45.178999999999974 903.4649999999999 179.769 846.066 273.315 798.49 350.852 742.927 422.52099999999996 724.9649999999999 511.7 706.2950000000001 604.391 699.8340000000001 704.539 742.181 789.079 783.981 872.527 877.454 909.677 952.266 965.481 1033.454 1026.041 1098.87 1136.216 1200 1130.579" fill="#053d83"></path></g><defs><mask id="SvgjsMask1009"><rect width="1200" height="580" fill="#ffffff"></rect></mask></defs></svg>