<svg xmlns="http://www.w3.org/2000/svg" version="1.1" xmlns:xlink="http://www.w3.org/1999/xlink" xmlns:svgjs="http://svgjs.com/svgjs" width="1200" height="580" preserveAspectRatio="none" viewBox="0 0 1200 580"><g mask="url(&quot;#SvgjsMask1038&quot;)" fill="none"><rect width="1200" height="580" x="0" y="0" fill="rgba(4, 51, 109, 1)"></rect><path d="M -353.7415889449509,331 C -233.74,281 6.26,67.2 246.25841105504912,81 C 486.26,94.8 606.26,383 846.2584110550491,400 C 1086.26,417 1375.51,170 1446.2584110550492,166 C 1517.01,162 1249.25,337.2 1200,380" stroke="rgba(174, 192, 227, 1)" stroke-width="2"></path><path d="M -915.3083710656841,203 C -795.31,253 -555.31,457.4 -315.3083710656841,453 C -75.31,448.6 44.69,171.8 284.6916289343159,181 C 524.69,190.2 701.63,501 884.6916289343159,499 C 1067.75,497 1136.94,236.6 1200,171" stroke="rgba(174, 192, 227, 1)" stroke-width="2"></path><path d="M -9.73400427827005,163 C 110.27,210.2 350.27,417.6 590.26599572173,399 C 830.27,380.4 950.27,70 1190.26599572173,70 C 1430.27,70 1788.32,393.8 1790.26599572173,399 C 1792.21,404.2 1318.05,156.6 1200,96" stroke="rgba(174, 192, 227, 1)" stroke-width="2"></path><path d="M -1066.8856861391587,473 C -946.89,397.4 -706.89,105.2 -466.88568613915874,95 C -226.89,84.8 -106.89,406.2 133.11431386084126,422 C 373.11,437.8 519.74,187.8 733.1143138608413,174 C 946.49,160.2 1106.62,317.2 1200,353" stroke="rgba(174, 192, 227, 1)" stroke-width="2"></path><path d="M -424.30763943180614,332 C -304.31,320 -64.31,242.6 175.6923605681939,272 C 415.69,301.4 535.69,481.8 775.6923605681939,479 C 1015.69,476.2 1290.83,289.6 1375.6923605681939,258 C 1460.55,226.4 1235.14,308.4 1200,321" stroke="rgba(174, 192, 227, 1)" stroke-width="2"></path><path d="M -98.24479960335873,249 C 21.76,281.4 261.76,413.6 501.75520039664127,411 C 741.76,408.4 861.76,257.4 1101.7552003966412,236 C 1341.76,214.6 1682.11,336 1701.7552003966412,304 C 1721.4,272 1300.35,121.6 1200,76" stroke="rgba(174, 192, 227, 1)" stroke-width="2"></path><path d="M -1145.1355262184188,282 C -1025.14,307.6 -785.14,433 -545.1355262184188,410 C -305.14,387 -185.14,177 54.86447378158118,167 C 294.86,157 425.84,336.6 654.8644737815812,360 C 883.89,383.4 1090.97,299.2 1200,284" stroke="rgba(174, 192, 227, 1)" stroke-width="2"></path></g><defs><mask id="SvgjsMask1038"><rect width="1200" height="580" fill="#ffffff"></rect></mask></defs></svg>